<svg width="106" height="105" viewBox="0 0 106 105" fill="none" xmlns="http://www.w3.org/2000/svg">
<path fill-rule="evenodd" clip-rule="evenodd" d="M32.3388 31.772C35.5848 28.5233 35.5928 23.2641 32.3469 20.0153C29.109 16.7746 23.8464 16.7746 20.6004 20.0234C17.3545 23.2721 17.3465 28.5393 20.5924 31.7801C23.8383 35.0288 29.0929 35.0208 32.3388 31.772ZM85.9129 30.9196C89.1588 27.6709 89.1668 22.4117 85.9209 19.1629C82.683 15.9222 77.4204 15.9222 74.1745 19.171C70.9285 22.4197 70.9205 27.6789 74.1664 30.9277C77.4124 34.1764 82.6669 34.1684 85.9129 30.9196ZM46.9054 46.48C43.6594 49.7287 43.6514 54.9959 46.8893 58.2367C50.1272 61.4774 55.3898 61.4774 58.6357 58.2206C61.8817 54.9718 61.8897 49.7046 58.6518 46.4639C55.4139 43.2231 50.1513 43.2231 46.9054 46.48ZM19.1623 74.0463C15.9163 77.2951 15.9083 82.5622 19.1462 85.803C22.3841 89.0437 27.6467 89.0437 30.8926 85.7869C34.1386 82.5381 34.1466 77.2709 30.9087 74.0302C27.6708 70.7895 22.4082 70.7975 19.1623 74.0463ZM82.225 52.1573C88.9579 51.8356 95.5944 49.1095 100.745 43.9549C102.456 42.2421 103.91 40.3523 105.083 38.358L96.1327 35.6882C95.6185 36.3637 95.0481 37.0151 94.4294 37.6343C86.9654 45.1049 74.8895 45.1129 67.4416 37.6584C59.9936 30.2039 60.0096 18.1095 67.4657 10.647C68.0843 10.0278 68.7351 9.45682 69.41 8.94217L66.7506 0C64.758 1.1821 62.8699 2.62958 61.1586 4.34242C56.6673 8.83763 54.0159 14.4747 53.2044 20.3209C52.2805 14.7642 49.6853 9.44074 45.411 5.15461C43.6996 3.44177 41.8195 1.9943 39.827 0.820235L37.1435 9.77848C37.8184 10.2931 38.4692 10.856 39.0878 11.4752C46.5358 18.9297 46.5197 31.0242 39.0637 38.4867C31.5997 45.9492 19.5238 45.9653 12.0758 38.5108C11.4572 37.8916 10.8948 37.2403 10.3806 36.5648L1.42211 39.2667C2.59514 41.261 4.04135 43.1427 5.7527 44.8556C10.3886 49.4955 16.2538 52.1573 22.3038 52.8569C15.7637 53.2911 9.34412 56.0092 4.33863 61.019C2.62728 62.7319 1.17304 64.6216 0 66.6159L8.95043 69.2857C9.46464 68.6102 10.0351 67.9588 10.6537 67.3397C18.1098 59.8691 30.1936 59.861 37.6416 67.3155C45.0896 74.77 45.0735 86.8645 37.6175 94.327C36.9988 94.9462 36.3481 95.5171 35.6732 96.0318L38.3406 104.99C40.3332 103.808 42.2213 102.36 43.9326 100.648C48.3275 96.2489 50.9548 90.7646 51.8305 85.0632C52.7947 90.5073 55.3737 95.7262 59.5758 99.9239C61.2871 101.637 63.1672 103.084 65.1598 104.258L67.8433 95.3C67.1684 94.7853 66.5176 94.2224 65.8989 93.6032C58.451 86.1488 58.467 74.0543 65.923 66.5918C73.3871 59.1212 85.4629 59.1132 92.9109 66.5677C93.5296 67.1869 94.092 67.8382 94.6062 68.5137L103.557 65.8279C102.384 63.8336 100.937 61.9518 99.226 60.239C94.4696 55.4543 88.4277 52.7765 82.225 52.1573ZM59.5999 60.247C55.205 64.6457 52.5777 70.1301 51.702 75.8315C50.7378 70.3874 48.1588 65.1684 43.9567 60.9708C39.3208 56.3308 33.4556 53.6691 27.4057 52.9695C33.9457 52.5352 40.3653 49.8172 45.3708 44.8073C49.8621 40.3121 52.5135 34.675 53.3249 28.8288C54.2489 34.3855 56.8441 39.709 61.1184 43.9951C65.8668 48.7477 71.9087 51.4335 78.1114 52.0447C71.3865 52.3664 64.742 55.1005 59.5999 60.247ZM72.6238 73.2904C69.3779 76.5391 69.3698 81.7983 72.6158 85.0471C75.8537 88.2878 81.1163 88.2878 84.3622 85.039C87.6081 81.7903 87.6162 76.5311 84.3702 73.2823C81.1323 70.0336 75.8697 70.0416 72.6238 73.2904Z" fill="url(#paint0_linear_17_131)"/>
<defs>
<linearGradient id="paint0_linear_17_131" x1="20.3547" y1="20.2814" x2="84.7693" y2="84.6253" gradientUnits="userSpaceOnUse">
<stop stop-color="#22DA70"/>
<stop offset="0.5088" stop-color="#22C4AF"/>
<stop offset="1" stop-color="#22B5DA"/>
</linearGradient>
</defs>
</svg>
